if (_typeface_js && _typeface_js.loadFace) _typeface_js.loadFace({"glyphs":{"0":{"ha":822,"x_min":24,"x_max":735,"o":"m 543 699 q 514 748 543 699 q 379 797 485 797 q 215 699 274 797 q 157 464 157 600 q 215 230 157 328 q 379 132 274 132 q 543 231 485 132 q 601 464 601 329 q 543 699 601 600 m 379 -3 q 183 67 265 -3 q 62 240 100 136 q 24 464 24 343 q 62 689 24 585 q 183 863 100 793 q 379 932 265 932 q 640 792 546 932 q 735 464 735 653 q 697 240 735 343 q 575 67 658 136 q 379 -3 492 -3 z "},"1":{"ha":429,"x_min":-46,"x_max":329,"o":"m 329 0 l 190 0 l 190 708 l 60 531 l -46 607 l 217 976 l 329 976 l 329 0 z "},"2":{"ha":793,"x_min":26,"x_max":724,"o":"m 172 651 l 32 663 q 139 890 51 801 q 371 978 226 978 q 558 935 476 978 q 678 823 640 892 q 724 676 717 754 q 692 521 731 599 q 576 390 653 443 q 422 265 510 336 q 263 135 335 194 l 708 135 l 708 0 l 26 0 l 26 108 l 483 497 l 482 497 q 572 633 557 551 q 533 776 588 714 q 371 838 478 838 q 235 788 285 838 q 172 651 185 738 z "},"3":{"ha":776,"x_min":14,"x_max":694,"o":"m 240 422 l 240 554 l 386 554 q 486 599 453 554 q 519 699 519 643 q 465 803 519 767 q 335 840 410 840 q 228 809 276 840 q 168 724 181 778 l 42 754 q 149 917 67 860 q 335 974 232 974 q 561 902 465 974 q 658 699 657 831 q 569 496 658 556 q 694 269 697 421 q 601 72 693 156 q 343 -12 508 -12 q 115 60 197 -12 q 14 242 32 132 l 144 265 q 206 160 154 203 q 343 118 257 118 q 510 168 451 118 q 563 283 568 218 q 515 379 557 336 q 386 422 472 422 l 240 422 z "},"4":{"ha":790,"x_min":10,"x_max":713,"o":"m 10 318 l 525 972 l 633 972 l 633 356 l 713 356 l 713 219 l 633 219 l 633 0 l 494 0 l 494 219 l 10 219 l 10 318 m 193 353 l 497 353 l 497 729 l 193 353 z "},"5":{"ha":797,"x_min":26,"x_max":714,"o":"m 26 221 l 156 274 q 358 142 221 142 q 517 200 461 142 q 572 339 574 258 q 542 439 572 392 q 460 510 513 486 q 118 478 290 579 l 39 514 l 39 976 l 658 976 l 658 840 l 181 840 l 181 646 q 510 640 356 703 q 660 519 607 600 q 714 339 713 438 q 621 101 715 201 q 358 0 526 0 q 26 221 114 0 z "},"6":{"ha":808,"x_min":18,"x_max":726,"o":"m 372 528 q 215 470 271 528 q 158 333 158 413 q 215 198 158 254 q 372 142 271 142 q 531 198 475 142 q 586 333 586 254 q 531 470 586 413 q 372 528 475 528 m 78 528 l 394 972 l 567 972 l 329 638 q 449 653 382 657 q 565 621 515 649 q 685 499 643 576 q 726 333 726 421 q 633 99 726 197 q 372 0 539 0 q 112 99 206 0 q 18 333 18 199 q 78 528 18 438 z "},"7":{"ha":760,"x_min":18,"x_max":703,"o":"m 18 972 l 703 972 l 703 876 l 224 0 l 63 0 l 518 835 l 18 835 l 18 972 z "},"8":{"ha":796,"x_min":19,"x_max":722,"o":"m 369 121 q 526 169 469 121 q 582 281 582 218 q 526 390 582 343 q 369 436 471 436 q 215 390 271 436 q 158 281 158 343 q 215 169 158 218 q 369 121 271 121 m 489 817 q 463 837 489 817 q 369 857 436 857 q 251 817 303 857 q 199 710 199 776 q 244 610 199 654 q 369 565 289 565 q 497 610 451 565 q 542 711 542 654 q 489 817 542 776 m 681 707 q 648 592 681 650 q 558 508 615 533 q 681 415 639 478 q 722 282 722 353 q 629 77 722 164 q 369 -10 536 -10 q 111 74 203 -10 q 19 282 19 158 q 64 411 19 349 q 188 508 108 474 q 88 594 117 538 q 60 708 60 651 q 154 909 61 838 q 369 981 247 981 q 599 899 517 981 q 681 707 681 818 z "},"9":{"ha":817,"x_min":25,"x_max":740,"o":"m 223 507 q 251 478 223 507 q 382 449 279 449 q 541 507 485 449 q 597 644 597 565 q 541 782 597 725 q 382 839 485 839 q 223 782 279 839 q 167 644 167 725 q 223 507 167 565 m 681 449 l 361 0 l 188 0 l 426 339 q 305 322 372 318 q 189 354 238 326 q 67 478 110 400 q 25 644 25 557 q 119 882 25 782 q 382 982 214 982 q 645 882 550 982 q 740 644 740 782 q 681 449 740 542 z "}," ":{"ha":374,"x_min":0,"x_max":0,"o":""},"!":{"ha":340,"x_min":58,"x_max":231,"o":"m 72 972 l 218 972 l 218 214 l 72 214 l 72 972 m 142 160 q 206 135 182 160 q 231 72 231 111 q 206 16 231 40 q 142 -8 181 -8 q 83 16 108 -8 q 58 72 58 40 q 83 135 58 111 q 142 160 107 160 z "},",":{"ha":353,"x_min":21,"x_max":285,"o":"m 161 -110 l 21 -110 l 122 146 l 285 146 l 161 -110 z "},".":{"ha":272,"x_min":24,"x_max":194,"o":"m 107 167 q 170 143 146 167 q 194 81 194 119 q 169 22 194 47 q 107 -4 144 -4 q 49 22 74 -4 q 24 81 24 49 q 48 142 24 118 q 107 167 72 167 z "},"?":{"ha":764,"x_min":0,"x_max":679,"o":"m 397 315 l 399 203 l 257 203 l 257 317 q 269 394 257 361 q 310 451 281 426 q 360 488 340 476 q 425 524 379 500 l 424 524 q 476 555 458 543 q 511 595 493 567 q 531 663 529 624 q 478 783 533 732 q 326 835 422 835 q 114 686 186 835 l 0 751 q 131 917 49 854 q 326 979 214 979 q 585 885 489 979 q 679 660 682 790 q 664 573 678 613 q 635 510 650 533 q 587 462 621 488 q 538 428 553 436 q 483 397 524 419 q 450 379 457 383 q 426 363 443 375 q 403 340 408 351 q 397 315 397 329 m 326 161 q 392 135 367 161 q 418 69 418 110 q 392 8 418 36 q 326 -19 365 -19 q 265 8 290 -19 q 239 69 239 36 q 264 135 239 110 q 326 161 289 161 z "},"A":{"ha":872,"x_min":-32,"x_max":851,"o":"m 411 761 l 289 418 l 531 418 l 411 761 m 701 0 l 585 286 l 236 286 q 119 0 156 94 l -32 0 l 358 985 l 461 985 l 851 0 l 701 0 z "},"B":{"ha":847,"x_min":50,"x_max":771,"o":"m 189 838 l 189 585 l 451 585 q 525 610 494 585 q 563 674 556 636 q 563 749 569 711 q 527 812 557 786 q 454 838 497 838 l 189 838 m 50 971 l 454 971 q 601 927 542 971 q 690 811 661 883 q 706 663 722 742 q 619 535 689 585 q 734 435 697 501 q 771 293 771 369 q 696 88 771 175 q 489 0 621 0 l 50 0 l 50 971 m 189 446 l 189 136 l 489 136 q 593 183 556 136 q 631 292 631 229 q 593 400 631 354 q 489 446 556 446 l 189 446 z "},"C":{"ha":1042,"x_min":32,"x_max":967,"o":"m 32 483 q 171 832 32 683 q 507 976 311 976 q 796 880 674 976 q 960 618 918 783 l 821 618 q 700 781 783 725 q 507 838 617 838 q 268 733 368 838 q 168 483 168 629 q 268 236 168 340 q 507 132 368 132 q 705 193 618 132 q 829 364 792 254 l 967 364 q 800 95 925 197 q 507 -7 675 -7 q 171 138 308 -7 q 32 483 32 286 z "},"D":{"ha":960,"x_min":51,"x_max":878,"o":"m 192 140 l 400 140 q 649 242 560 140 q 739 485 739 344 q 649 728 739 625 q 400 831 560 831 l 192 831 l 192 140 m 51 971 l 400 971 q 608 929 515 971 q 759 819 701 888 q 847 664 817 750 q 878 485 878 578 q 847 306 878 392 q 759 151 817 221 q 608 41 701 82 q 400 0 515 0 l 51 0 l 51 971 z "},"E":{"ha":706,"x_min":44,"x_max":638,"o":"m 186 415 l 186 140 l 638 140 l 638 0 l 44 0 l 44 971 l 636 971 l 636 831 l 186 831 l 186 557 l 626 557 l 626 415 l 186 415 z "},"F":{"ha":679,"x_min":44,"x_max":624,"o":"m 185 415 l 185 0 l 44 0 l 44 971 l 624 971 l 624 831 l 185 831 l 185 557 l 574 557 l 574 415 l 185 415 z "},"G":{"ha":1063,"x_min":32,"x_max":979,"o":"m 972 624 l 822 624 q 706 785 796 732 q 510 838 615 838 q 269 738 367 838 q 172 485 172 638 q 269 230 172 332 q 510 128 367 128 q 690 176 607 128 q 815 325 774 225 l 456 325 l 456 465 l 979 465 q 953 297 968 338 l 953 299 q 776 78 904 164 q 510 -7 647 -7 q 168 132 304 -7 q 32 485 32 271 q 169 838 32 699 q 510 978 307 978 q 654 958 583 978 q 791 899 725 939 q 906 788 857 858 q 972 624 954 717 z "},"H":{"ha":838,"x_min":49,"x_max":742,"o":"m 189 971 l 189 561 l 600 561 l 600 971 l 742 971 l 742 0 l 600 0 l 600 422 l 189 422 l 189 0 l 49 0 l 49 971 l 189 971 z "},"I":{"ha":596,"x_min":19,"x_max":521,"o":"m 521 971 l 521 832 l 340 832 l 340 140 l 521 140 l 521 0 l 19 0 l 19 140 l 200 140 l 200 832 l 19 832 l 19 971 l 521 971 z "},"J":{"ha":617,"x_min":-6,"x_max":531,"o":"m 531 971 l 531 421 q 381 107 531 214 q -6 0 232 0 l -6 140 q 280 211 169 140 q 390 421 390 282 l 390 832 l 128 832 l 128 971 l 531 971 z "},"K":{"ha":785,"x_min":51,"x_max":771,"o":"m 51 971 l 190 971 l 190 0 l 51 0 l 51 971 m 217 450 l 217 521 l 556 971 l 732 971 l 361 489 l 771 0 l 588 0 l 217 450 z "},"L":{"ha":708,"x_min":46,"x_max":643,"o":"m 186 971 l 186 140 l 643 140 l 643 0 l 46 0 l 46 971 l 186 971 z "},"M":{"ha":1038,"x_min":54,"x_max":921,"o":"m 194 685 l 194 0 l 54 0 l 54 972 l 168 972 l 489 500 l 810 972 l 921 972 l 921 0 l 782 0 l 782 685 l 528 307 l 449 307 l 194 685 z "},"N":{"ha":872,"x_min":50,"x_max":771,"o":"m 190 0 l 50 0 l 50 974 l 158 972 l 632 288 l 632 972 l 771 972 l 771 0 l 660 0 l 190 679 l 190 0 z "},"O":{"ha":1108,"x_min":25,"x_max":1015,"o":"m 771 235 q 874 486 874 340 q 771 738 874 632 q 519 843 665 843 q 271 738 374 843 q 167 486 167 633 q 271 235 167 339 q 519 129 374 129 q 771 235 665 129 m 169 135 q 25 486 25 283 q 169 838 25 689 q 519 985 314 985 q 871 838 724 985 q 1015 486 1015 689 q 871 135 1015 283 q 519 -12 726 -12 q 169 135 313 -12 z "},"P":{"ha":788,"x_min":47,"x_max":718,"o":"m 47 972 l 403 972 q 635 876 551 972 q 718 647 718 779 q 635 419 718 515 q 403 324 551 324 l 189 324 l 189 0 l 47 0 l 47 972 m 189 463 l 403 463 q 533 517 486 463 q 579 646 579 571 q 533 776 579 721 q 403 831 486 831 l 189 831 l 189 463 z "},"Q":{"ha":1119,"x_min":35,"x_max":1081,"o":"m 883 486 q 779 738 883 631 q 529 843 676 843 q 279 738 385 843 q 175 486 175 631 q 279 233 175 340 q 492 128 369 143 q 726 179 615 113 l 457 419 l 651 419 l 817 269 q 883 486 883 360 m 1081 31 l 1081 0 l 928 0 l 836 82 q 484 -9 674 -25 q 179 135 294 7 q 35 486 35 293 q 179 838 35 689 q 529 985 324 985 q 881 838 733 985 q 1025 486 1025 689 q 919 182 1025 319 l 1081 31 z "},"R":{"ha":788,"x_min":51,"x_max":778,"o":"m 242 426 l 242 493 l 406 493 q 535 543 489 493 q 582 663 582 593 q 535 781 582 731 q 406 831 489 831 l 190 831 l 190 0 l 51 0 l 51 972 l 406 972 q 639 880 556 972 q 722 663 722 788 q 656 470 722 554 q 471 365 590 386 l 778 0 l 596 0 l 242 426 z "},"S":{"ha":825,"x_min":33,"x_max":746,"o":"m 719 726 l 581 721 q 509 814 567 782 q 382 844 451 846 q 206 771 261 842 q 182 681 178 735 q 199 631 183 651 q 232 597 214 610 q 283 576 250 585 q 340 565 317 568 q 403 558 363 563 q 508 540 463 551 q 605 508 553 529 q 691 447 657 486 q 739 351 725 407 q 746 288 746 317 q 636 73 746 154 q 385 -8 526 -8 q 232 20 307 -8 q 100 110 157 49 q 35 254 43 172 l 33 281 l 175 283 l 176 263 l 176 268 q 247 167 183 204 q 386 131 311 131 q 538 174 471 131 q 604 289 604 218 q 600 322 604 303 q 575 367 594 349 q 522 394 556 385 q 460 409 488 404 q 386 418 432 414 q 292 431 332 424 q 205 455 253 438 q 125 498 157 472 q 69 567 93 524 q 42 669 46 611 l 42 668 q 94 853 33 772 q 222 948 142 914 q 389 982 301 982 q 607 917 513 982 q 719 726 701 851 z "},"T":{"ha":797,"x_min":0,"x_max":728,"o":"m 435 -4 l 294 -4 l 294 831 l 0 831 l 0 972 l 728 972 l 728 831 l 435 831 l 435 -4 z "},"U":{"ha":874,"x_min":53,"x_max":771,"o":"m 413 -10 q 244 23 324 -10 q 108 126 164 56 q 53 292 53 197 l 53 971 l 194 971 l 194 290 q 261 173 194 215 q 413 131 328 131 q 563 174 496 131 q 629 292 629 217 l 629 971 l 771 971 l 771 290 q 715 126 771 197 q 580 23 660 56 q 413 -10 500 -10 z "},"V":{"ha":892,"x_min":-29,"x_max":854,"o":"m 413 244 l 704 971 l 854 971 l 464 -3 l 361 -3 l -29 971 l 124 971 l 413 244 z "},"W":{"ha":1238,"x_min":-14,"x_max":1175,"o":"m 747 -8 l 579 463 q 526 311 560 408 q 464 135 492 214 q 414 -8 436 57 l 310 -8 l -14 971 l 132 971 l 364 269 l 524 724 l 636 724 l 794 271 q 910 616 829 378 q 1028 971 990 854 l 1175 971 l 851 -8 l 747 -8 z "},"X":{"ha":890,"x_min":-31,"x_max":842,"o":"m -31 971 l 142 971 l 406 607 l 671 971 l 842 971 l 490 483 q 842 0 790 72 l 671 0 l 406 364 l 142 0 l -31 0 l 321 483 q -31 971 254 575 z "},"Y":{"ha":843,"x_min":-42,"x_max":821,"o":"m -42 971 l 124 971 l 389 544 l 654 971 l 821 971 l 460 396 l 460 0 l 318 0 l 318 396 l -42 971 z "},"Z":{"ha":831,"x_min":44,"x_max":756,"o":"m 749 972 l 749 863 l 207 125 l 756 125 l 756 0 l 44 0 l 44 115 l 583 847 l 44 847 l 44 972 l 749 972 z "},"`":{"ha":397,"x_min":19,"x_max":308,"o":"m 308 847 l 176 847 l 19 996 l 208 996 l 308 847 z "},"a":{"ha":872,"x_min":-32,"x_max":851,"o":"m 411 761 l 289 418 l 531 418 l 411 761 m 701 0 l 585 286 l 236 286 q 119 0 156 94 l -32 0 l 358 985 l 461 985 l 851 0 l 701 0 z "},"b":{"ha":836,"x_min":50,"x_max":771,"o":"m 189 838 l 189 585 l 451 585 q 525 610 494 585 q 563 674 556 636 q 563 749 569 711 q 527 812 557 786 q 454 838 497 838 l 189 838 m 50 971 l 454 971 q 601 927 542 971 q 690 811 661 883 q 706 663 722 742 q 619 535 689 585 q 734 435 697 501 q 771 293 771 369 q 696 88 771 175 q 489 0 621 0 l 50 0 l 50 971 m 189 446 l 189 136 l 489 136 q 593 183 556 136 q 631 292 631 229 q 593 400 631 354 q 489 446 556 446 l 189 446 z "},"c":{"ha":1042,"x_min":32,"x_max":967,"o":"m 32 483 q 171 832 32 683 q 507 976 311 976 q 796 880 674 976 q 960 618 918 783 l 821 618 q 700 781 783 725 q 507 838 617 838 q 268 733 368 838 q 168 483 168 629 q 268 236 168 340 q 507 132 368 132 q 705 193 618 132 q 829 364 792 254 l 967 364 q 800 95 925 197 q 507 -7 675 -7 q 171 138 308 -7 q 32 483 32 286 z "},"d":{"ha":960,"x_min":51,"x_max":878,"o":"m 192 140 l 400 140 q 649 242 560 140 q 739 485 739 344 q 649 728 739 625 q 400 831 560 831 l 192 831 l 192 140 m 51 971 l 400 971 q 608 929 515 971 q 759 819 701 888 q 847 664 817 750 q 878 485 878 578 q 847 306 878 392 q 759 151 817 221 q 608 41 701 82 q 400 0 515 0 l 51 0 l 51 971 z "},"e":{"ha":706,"x_min":44,"x_max":638,"o":"m 186 415 l 186 140 l 638 140 l 638 0 l 44 0 l 44 971 l 636 971 l 636 831 l 186 831 l 186 557 l 626 557 l 626 415 l 186 415 z "},"f":{"ha":679,"x_min":44,"x_max":624,"o":"m 185 415 l 185 0 l 44 0 l 44 971 l 624 971 l 624 831 l 185 831 l 185 557 l 574 557 l 574 415 l 185 415 z "},"g":{"ha":1063,"x_min":32,"x_max":979,"o":"m 972 624 l 822 624 q 706 785 796 732 q 510 838 615 838 q 269 738 367 838 q 172 485 172 638 q 269 230 172 332 q 510 128 367 128 q 690 176 607 128 q 815 325 774 225 l 456 325 l 456 465 l 979 465 q 953 297 968 338 l 953 299 q 776 78 904 164 q 510 -7 647 -7 q 168 132 304 -7 q 32 485 32 271 q 169 838 32 699 q 510 978 307 978 q 654 958 583 978 q 791 899 725 939 q 906 788 857 858 q 972 624 954 717 z "},"h":{"ha":838,"x_min":49,"x_max":742,"o":"m 189 971 l 189 561 l 600 561 l 600 971 l 742 971 l 742 0 l 600 0 l 600 422 l 189 422 l 189 0 l 49 0 l 49 971 l 189 971 z "},"i":{"ha":575,"x_min":6,"x_max":507,"o":"m 507 971 l 507 832 l 326 832 l 326 140 l 507 140 l 507 0 l 6 0 l 6 140 l 186 140 l 186 832 l 6 832 l 6 971 l 507 971 z "},"j":{"ha":628,"x_min":14,"x_max":542,"o":"m 542 971 l 542 421 q 396 106 542 213 q 14 0 250 0 l 14 132 q 294 206 186 132 q 401 421 401 281 l 401 832 l 139 832 l 139 971 l 542 971 z "},"k":{"ha":785,"x_min":51,"x_max":771,"o":"m 51 971 l 190 971 l 190 0 l 51 0 l 51 971 m 217 450 l 217 521 l 556 971 l 732 971 l 361 489 l 771 0 l 588 0 l 217 450 z "},"l":{"ha":719,"x_min":57,"x_max":654,"o":"m 197 971 l 197 140 l 654 140 l 654 0 l 57 0 l 57 971 l 197 971 z "},"m":{"ha":1038,"x_min":54,"x_max":921,"o":"m 194 685 l 194 0 l 54 0 l 54 972 l 168 972 l 489 500 l 810 972 l 921 972 l 921 0 l 782 0 l 782 685 l 528 307 l 449 307 l 194 685 z "},"n":{"ha":872,"x_min":50,"x_max":771,"o":"m 190 0 l 50 0 l 50 974 l 158 972 l 632 288 l 632 972 l 771 972 l 771 0 l 660 0 l 190 679 l 190 0 z "},"o":{"ha":1108,"x_min":25,"x_max":1015,"o":"m 771 235 q 874 486 874 340 q 771 738 874 632 q 519 843 665 843 q 271 738 374 843 q 167 486 167 633 q 271 235 167 339 q 519 129 374 129 q 771 235 665 129 m 169 135 q 25 486 25 283 q 169 838 25 689 q 519 985 314 985 q 871 838 724 985 q 1015 486 1015 689 q 871 135 1015 283 q 519 -12 726 -12 q 169 135 313 -12 z "},"p":{"ha":796,"x_min":47,"x_max":718,"o":"m 47 972 l 403 972 q 635 876 551 972 q 718 647 718 779 q 635 419 718 515 q 403 324 551 324 l 189 324 l 189 0 l 47 0 l 47 972 m 189 463 l 403 463 q 533 517 486 463 q 579 646 579 571 q 533 776 579 721 q 403 831 486 831 l 189 831 l 189 463 z "},"q":{"ha":1131,"x_min":35,"x_max":1081,"o":"m 883 486 q 779 738 883 631 q 529 843 676 843 q 279 738 385 843 q 175 486 175 631 q 279 233 175 340 q 492 128 369 143 q 726 179 615 113 l 457 419 l 651 419 l 817 269 q 883 486 883 360 m 1081 31 l 1081 0 l 928 0 l 836 82 q 484 -9 674 -25 q 179 135 294 7 q 35 486 35 293 q 179 838 35 689 q 529 985 324 985 q 881 838 733 985 q 1025 486 1025 689 q 919 182 1025 319 l 1081 31 z "},"r":{"ha":793,"x_min":51,"x_max":778,"o":"m 242 426 l 242 493 l 406 493 q 535 543 489 493 q 582 663 582 593 q 535 781 582 731 q 406 831 489 831 l 190 831 l 190 0 l 51 0 l 51 972 l 406 972 q 639 880 556 972 q 722 663 722 788 q 656 470 722 554 q 471 365 590 386 l 778 0 l 596 0 l 242 426 z "},"s":{"ha":825,"x_min":33,"x_max":746,"o":"m 719 726 l 581 721 q 509 814 567 782 q 382 844 451 846 q 206 771 261 842 q 182 681 178 735 q 199 631 183 651 q 232 597 214 610 q 283 576 250 585 q 340 565 317 568 q 403 558 363 563 q 508 540 463 551 q 605 508 553 529 q 691 447 657 486 q 739 351 725 407 q 746 288 746 317 q 636 73 746 154 q 385 -8 526 -8 q 232 20 307 -8 q 100 110 157 49 q 35 254 43 172 l 33 281 l 175 283 l 176 263 l 176 268 q 247 167 183 204 q 386 131 311 131 q 538 174 471 131 q 604 289 604 218 q 600 322 604 303 q 575 367 594 349 q 522 394 556 385 q 460 409 488 404 q 386 418 432 414 q 292 431 332 424 q 205 455 253 438 q 125 498 157 472 q 69 567 93 524 q 42 669 46 611 l 42 668 q 94 853 33 772 q 222 948 142 914 q 389 982 301 982 q 607 917 513 982 q 719 726 701 851 z "},"t":{"ha":797,"x_min":0,"x_max":728,"o":"m 435 -4 l 294 -4 l 294 842 l 0 842 l 0 972 l 728 972 l 728 842 l 435 842 l 435 -4 z "},"u":{"ha":889,"x_min":68,"x_max":786,"o":"m 428 -10 q 259 23 339 -10 q 124 126 179 56 q 68 292 68 197 l 68 971 l 210 971 l 210 290 q 276 173 210 215 q 428 131 343 131 q 578 174 511 131 q 644 292 644 217 l 644 971 l 786 971 l 786 290 q 731 126 786 197 q 595 23 675 56 q 428 -10 515 -10 z "},"v":{"ha":892,"x_min":-29,"x_max":854,"o":"m 413 244 l 704 971 l 854 971 l 464 -3 l 361 -3 l -29 971 l 124 971 l 413 244 z "},"w":{"ha":1238,"x_min":-14,"x_max":1175,"o":"m 750 -6 l 579 463 q 497 235 556 396 q 411 -6 439 75 l 313 -6 l -14 971 l 132 971 l 364 269 l 524 724 l 636 724 l 794 271 q 910 616 829 378 q 1028 971 990 854 l 1175 971 l 849 -6 l 750 -6 z "},"x":{"ha":890,"x_min":-31,"x_max":842,"o":"m -31 971 l 142 971 l 406 607 l 671 971 l 842 971 l 490 483 q 842 0 790 72 l 671 0 l 406 364 l 142 0 l -31 0 l 321 483 q -31 971 254 575 z "},"y":{"ha":843,"x_min":-42,"x_max":821,"o":"m -42 971 l 124 971 l 389 544 l 654 971 l 821 971 l 460 396 l 460 0 l 318 0 l 318 396 l -42 971 z "},"z":{"ha":831,"x_min":44,"x_max":756,"o":"m 749 972 l 749 863 l 207 125 l 756 125 l 756 0 l 44 0 l 44 115 l 583 847 l 44 847 l 44 972 l 749 972 z "}," ":{"ha":278,"x_min":0,"x_max":0,"o":""},"¡":{"ha":336,"x_min":58,"x_max":231,"o":"m 71 -8 l 217 -8 l 217 750 l 71 750 l 71 -8 m 147 804 q 83 828 107 804 q 58 892 58 853 q 83 948 58 924 q 147 972 108 972 q 206 948 181 972 q 231 892 231 924 q 206 828 231 853 q 147 804 182 804 z "},"¥":{"ha":843,"x_min":-42,"x_max":821,"o":"m 164 282 l 164 383 l 322 383 l 304 418 l 164 418 l 164 514 l 244 514 l -42 971 l 124 971 l 389 544 l 654 971 l 821 971 l 533 514 l 607 514 l 607 418 l 474 418 l 454 383 l 607 383 l 607 282 l 460 282 l 460 0 l 318 0 l 318 282 l 164 282 z "},"¨":{"ha":604,"x_min":75,"x_max":493,"o":"m 153 1024 q 212 1001 189 1024 q 235 942 235 978 q 211 888 235 911 q 153 864 188 864 q 98 888 121 864 q 75 942 75 911 q 97 1001 75 978 q 153 1024 119 1024 m 413 1024 q 471 1001 449 1024 q 493 942 493 978 q 469 888 493 913 q 413 864 444 864 q 357 888 381 864 q 333 942 333 911 q 356 1001 333 978 q 413 1024 379 1024 z "},"´":{"ha":397,"x_min":50,"x_max":339,"o":"m 182 847 l 50 847 l 150 996 l 339 996 l 182 847 z "},"·":{"ha":285,"x_min":51,"x_max":211,"o":"m 129 519 q 188 497 165 519 q 211 439 211 475 q 188 383 211 407 q 129 360 164 360 q 74 384 97 360 q 51 439 51 408 q 74 497 51 475 q 129 519 96 519 z "},"¿":{"ha":769,"x_min":32,"x_max":711,"o":"m 313 760 l 314 647 q 299 613 314 629 q 272 590 283 596 q 228 565 261 583 q 173 535 188 543 q 124 501 158 526 q 76 452 90 475 q 47 390 61 429 q 32 303 33 350 q 126 78 29 172 q 385 -17 222 -17 q 580 46 497 -17 q 711 211 663 108 l 597 276 q 385 128 525 128 q 233 179 289 128 q 181 300 178 231 q 200 367 182 339 q 235 408 218 396 q 288 439 253 419 l 286 439 q 351 474 332 463 q 401 511 371 486 q 442 569 431 536 q 454 646 454 601 l 454 760 l 313 760 m 385 801 q 319 827 344 801 q 293 893 293 853 q 319 954 293 926 q 385 982 346 982 q 447 954 421 982 q 472 893 472 926 q 447 827 472 853 q 385 801 422 801 z "},"À":{"ha":872,"x_min":-32,"x_max":851,"o":"m 411 761 l 289 418 l 531 418 l 411 761 m 701 0 l 585 286 l 236 286 q 119 0 156 94 l -32 0 l 358 985 l 461 985 l 851 0 l 701 0 m 474 1022 l 342 1022 l 185 1171 l 374 1171 l 474 1022 z "},"Á":{"ha":872,"x_min":-32,"x_max":851,"o":"m 411 761 l 289 418 l 531 418 l 411 761 m 701 0 l 585 286 l 236 286 q 119 0 156 94 l -32 0 l 358 985 l 461 985 l 851 0 l 701 0 m 472 1021 l 340 1021 l 440 1169 l 629 1169 l 472 1021 z "},"Â":{"ha":872,"x_min":-32,"x_max":851,"o":"m 411 761 l 289 418 l 531 418 l 411 761 m 701 0 l 585 286 l 236 286 q 119 0 156 94 l -32 0 l 358 985 l 461 985 l 851 0 l 701 0 m 342 1013 l 189 1013 l 346 1151 l 465 1151 l 618 1013 l 468 1013 l 401 1067 l 342 1013 z "},"Ã":{"ha":872,"x_min":-32,"x_max":851,"o":"m 308 1015 l 228 1053 q 329 1157 269 1149 q 376 1149 351 1158 q 417 1128 400 1139 q 449 1113 433 1118 q 477 1117 465 1107 q 497 1157 489 1126 l 586 1113 q 496 1013 551 1028 q 444 1017 474 1006 q 393 1042 415 1028 q 347 1053 371 1057 q 308 1015 324 1049 m 411 761 l 289 418 l 531 418 l 411 761 m 701 0 l 585 286 l 236 286 q 119 0 156 94 l -32 0 l 358 985 l 461 985 l 851 0 l 701 0 z "},"Ä":{"ha":872,"x_min":-32,"x_max":851,"o":"m 411 761 l 289 418 l 531 418 l 411 761 m 701 0 l 585 286 l 236 286 q 119 0 156 94 l -32 0 l 358 985 l 461 985 l 851 0 l 701 0 m 286 1140 q 344 1122 322 1140 q 365 1074 365 1104 q 343 1029 365 1049 q 286 1010 321 1010 q 232 1029 254 1010 q 210 1074 210 1049 q 231 1122 210 1103 q 286 1140 253 1140 m 539 1140 q 595 1122 574 1140 q 617 1074 617 1104 q 593 1029 617 1049 q 539 1010 569 1010 q 484 1029 507 1010 q 461 1074 461 1049 q 483 1122 461 1103 q 539 1140 506 1140 z "},"Å":{"ha":881,"x_min":-24,"x_max":860,"o":"m 297 1061 q 331 1144 297 1110 q 413 1179 365 1179 q 496 1144 461 1179 q 531 1061 531 1108 q 478 963 531 997 l 860 0 l 710 0 l 593 286 l 244 286 q 128 0 164 94 l -24 0 l 356 958 q 297 1061 297 993 m 419 761 l 297 418 l 539 418 l 419 761 m 458 1061 q 445 1093 458 1079 q 413 1107 432 1107 q 383 1093 396 1107 q 369 1061 369 1079 q 383 1031 369 1044 q 413 1018 396 1018 q 446 1031 433 1018 q 458 1061 458 1044 z "},"Æ":{"ha":1222,"x_min":-19,"x_max":1135,"o":"m 682 346 l 682 140 l 1135 140 l 1135 0 l 542 0 l 542 346 l 336 346 q 139 0 215 136 l -19 0 l 525 972 l 1132 972 l 1132 832 l 682 832 l 682 486 l 1122 486 l 1122 346 l 682 346 m 414 486 l 542 486 l 556 794 l 414 486 z "},"Ç":{"ha":1026,"x_min":32,"x_max":967,"o":"m 32 483 q 171 832 32 683 q 507 976 311 976 q 796 880 674 976 q 960 618 918 783 l 821 618 q 700 781 783 725 q 507 838 617 838 q 268 733 368 838 q 168 483 168 629 q 268 236 168 340 q 507 132 368 132 q 705 193 618 132 q 829 364 792 254 l 967 364 q 812 105 926 206 q 540 -6 697 4 l 526 -43 q 632 -91 596 -47 q 653 -192 668 -135 q 572 -289 638 -250 q 499 -312 540 -308 q 418 -304 457 -315 q 349 -264 379 -293 q 310 -194 318 -235 l 390 -169 q 497 -218 440 -233 q 542 -176 535 -208 q 494 -118 551 -137 q 399 -108 457 -106 l 444 -3 q 171 138 283 18 q 32 483 32 286 z "},"È":{"ha":706,"x_min":44,"x_max":638,"o":"m 186 140 l 186 415 l 626 415 l 626 557 l 186 557 l 186 831 l 636 831 l 636 971 l 44 971 l 44 0 l 638 0 l 638 140 l 186 140 m 450 1017 l 318 1017 l 161 1165 l 350 1165 l 450 1017 z "},"É":{"ha":706,"x_min":44,"x_max":638,"o":"m 186 415 l 186 140 l 638 140 l 638 0 l 44 0 l 44 971 l 636 971 l 636 831 l 186 831 l 186 557 l 626 557 l 626 415 l 186 415 m 397 1014 l 265 1014 l 365 1163 l 554 1163 l 397 1014 z "},"Ê":{"ha":706,"x_min":44,"x_max":638,"o":"m 186 415 l 186 140 l 638 140 l 638 0 l 44 0 l 44 971 l 636 971 l 636 831 l 186 831 l 186 557 l 626 557 l 626 415 l 186 415 m 292 1018 l 139 1018 l 296 1157 l 415 1157 l 568 1018 l 418 1018 l 351 1072 l 292 1018 z "},"Ë":{"ha":706,"x_min":44,"x_max":638,"o":"m 186 140 l 186 415 l 626 415 l 626 557 l 186 557 l 186 831 l 636 831 l 636 971 l 44 971 l 44 0 l 638 0 l 638 140 l 186 140 m 232 1153 q 290 1132 268 1153 q 313 1079 313 1111 q 290 1032 313 1053 q 232 1011 267 1011 q 178 1033 201 1011 q 156 1079 156 1054 q 178 1132 156 1111 q 232 1153 200 1153 m 486 1153 q 544 1133 522 1153 q 565 1079 565 1113 q 542 1033 565 1054 q 486 1011 518 1011 q 432 1032 454 1011 q 410 1079 410 1053 q 432 1132 410 1111 q 486 1153 454 1153 z "},"Ì":{"ha":582,"x_min":13,"x_max":514,"o":"m 514 832 l 514 971 l 13 971 l 13 832 l 193 832 l 193 140 l 13 140 l 13 0 l 514 0 l 514 140 l 333 140 l 333 832 l 514 832 m 338 1011 l 206 1011 l 49 1160 l 238 1160 l 338 1011 z "},"Í":{"ha":575,"x_min":6,"x_max":507,"o":"m 507 971 l 507 832 l 326 832 l 326 140 l 507 140 l 507 0 l 6 0 l 6 140 l 186 140 l 186 832 l 6 832 l 6 971 l 507 971 m 315 1015 l 183 1015 l 283 1164 l 472 1164 l 315 1015 z "},"Î":{"ha":575,"x_min":6,"x_max":507,"o":"m 507 971 l 507 832 l 326 832 l 326 140 l 507 140 l 507 0 l 6 0 l 6 140 l 186 140 l 186 832 l 6 832 l 6 971 l 507 971 m 196 1013 l 43 1013 l 200 1151 l 319 1151 l 472 1013 l 322 1013 l 256 1067 l 196 1013 z "},"Ï":{"ha":575,"x_min":6,"x_max":507,"o":"m 507 832 l 507 971 l 6 971 l 6 832 l 186 832 l 186 140 l 6 140 l 6 0 l 507 0 l 507 140 l 326 140 l 326 832 l 507 832 m 135 1150 q 192 1130 169 1150 q 214 1078 214 1110 q 191 1031 214 1051 q 135 1010 168 1010 q 81 1031 103 1010 q 58 1078 58 1051 q 80 1130 58 1110 q 135 1150 101 1150 m 388 1150 q 444 1130 422 1150 q 465 1078 465 1110 q 442 1031 465 1053 q 388 1010 418 1010 q 333 1031 356 1010 q 310 1078 310 1051 q 332 1130 310 1110 q 388 1150 354 1150 z "},"Ñ":{"ha":872,"x_min":50,"x_max":771,"o":"m 329 1008 l 246 1043 q 289 1126 268 1099 q 339 1158 310 1153 q 397 1148 365 1161 q 449 1122 429 1135 q 485 1116 468 1110 q 511 1160 503 1122 l 603 1119 q 518 1007 568 1026 q 465 1012 496 1000 q 413 1038 435 1024 q 367 1048 390 1053 q 329 1008 343 1043 m 190 0 l 50 0 l 50 974 l 158 972 l 632 288 l 632 972 l 771 972 l 771 0 l 660 0 l 190 679 l 190 0 z "},"Ò":{"ha":1108,"x_min":25,"x_max":1015,"o":"m 771 738 q 874 486 874 632 q 771 235 874 340 q 519 129 665 129 q 271 235 374 129 q 167 486 167 339 q 271 738 167 633 q 519 843 374 843 q 771 738 665 843 m 169 838 q 25 486 25 689 q 169 135 25 283 q 519 -12 313 -12 q 871 135 726 -12 q 1015 486 1015 283 q 871 838 1015 689 q 519 985 724 985 q 169 838 314 985 m 606 1021 l 474 1021 l 317 1169 l 506 1169 l 606 1021 z "},"Ó":{"ha":1108,"x_min":25,"x_max":1015,"o":"m 771 235 q 874 486 874 340 q 771 738 874 632 q 519 843 665 843 q 271 738 374 843 q 167 486 167 633 q 271 235 167 339 q 519 129 374 129 q 771 235 665 129 m 169 135 q 25 486 25 283 q 169 838 25 689 q 519 985 314 985 q 871 838 724 985 q 1015 486 1015 689 q 871 135 1015 283 q 519 -12 726 -12 q 169 135 313 -12 m 571 1019 l 439 1019 l 539 1168 l 728 1168 l 571 1019 z "},"Ô":{"ha":1108,"x_min":25,"x_max":1015,"o":"m 771 235 q 874 486 874 340 q 771 738 874 632 q 519 843 665 843 q 271 738 374 843 q 167 486 167 633 q 271 235 167 339 q 519 129 374 129 q 771 235 665 129 m 169 135 q 25 486 25 283 q 169 838 25 689 q 519 985 314 985 q 871 838 724 985 q 1015 486 1015 689 q 871 135 1015 283 q 519 -12 726 -12 q 169 135 313 -12 m 464 1017 l 311 1017 l 468 1156 l 588 1156 l 740 1017 l 590 1017 l 524 1071 l 464 1017 z "},"Õ":{"ha":1108,"x_min":25,"x_max":1015,"o":"m 424 1021 l 339 1051 q 435 1156 382 1149 q 493 1147 461 1158 q 544 1124 525 1135 q 581 1118 564 1113 q 608 1157 599 1124 l 700 1124 q 613 1019 660 1035 q 560 1023 590 1013 q 506 1047 529 1033 q 460 1056 483 1060 q 424 1021 438 1053 m 771 235 q 874 486 874 340 q 771 738 874 632 q 519 843 665 843 q 271 738 374 843 q 167 486 167 633 q 271 235 167 339 q 519 129 374 129 q 771 235 665 129 m 169 135 q 25 486 25 283 q 169 838 25 689 q 519 985 314 985 q 871 838 724 985 q 1015 486 1015 689 q 871 135 1015 283 q 519 -12 726 -12 q 169 135 313 -12 z "},"Ö":{"ha":1108,"x_min":25,"x_max":1015,"o":"m 771 738 q 874 486 874 632 q 771 235 874 340 q 519 129 665 129 q 271 235 374 129 q 167 486 167 339 q 271 738 167 633 q 519 843 374 843 q 771 738 665 843 m 169 838 q 25 486 25 689 q 169 135 25 283 q 519 -12 313 -12 q 871 135 726 -12 q 1015 486 1015 283 q 871 838 1015 689 q 519 985 724 985 q 169 838 314 985 m 397 1149 q 456 1129 433 1149 q 478 1079 478 1110 q 455 1033 478 1053 q 397 1013 432 1013 q 343 1033 365 1013 q 321 1079 321 1053 q 342 1129 321 1110 q 397 1149 364 1149 m 653 1149 q 711 1130 689 1149 q 733 1079 733 1111 q 709 1033 733 1054 q 653 1013 685 1013 q 598 1033 621 1013 q 575 1079 575 1054 q 597 1129 575 1110 q 653 1149 619 1149 z "},"Ø":{"ha":1111,"x_min":33,"x_max":1024,"o":"m 178 135 q 33 486 33 283 q 178 838 33 689 q 528 985 322 985 q 738 939 646 985 l 783 1010 l 939 1011 l 847 864 q 1024 486 1024 711 q 879 135 1024 283 q 528 -12 736 -12 q 317 33 418 -12 l 258 -60 l 104 -60 l 210 110 l 178 136 l 178 135 m 882 486 q 771 747 882 636 q 392 157 735 690 q 528 129 449 129 q 779 235 674 129 q 882 486 882 340 m 528 843 q 279 738 382 843 q 175 486 175 631 q 279 235 175 342 l 279 233 l 283 231 l 286 228 l 661 819 q 528 843 599 843 z "},"Ù":{"ha":874,"x_min":53,"x_max":771,"o":"m 413 -10 q 580 23 500 -10 q 715 126 660 56 q 771 290 771 197 l 771 971 l 629 971 l 629 292 q 563 174 629 217 q 413 131 496 131 q 261 173 328 131 q 194 290 194 215 l 194 971 l 53 971 l 53 292 q 108 126 53 197 q 244 23 164 56 q 413 -10 324 -10 m 522 1010 l 390 1010 l 233 1158 l 422 1158 l 522 1010 z "},"Ú":{"ha":874,"x_min":53,"x_max":771,"o":"m 413 -10 q 244 23 324 -10 q 108 126 164 56 q 53 292 53 197 l 53 971 l 194 971 l 194 290 q 261 173 194 215 q 413 131 328 131 q 563 174 496 131 q 629 292 629 217 l 629 971 l 771 971 l 771 290 q 715 126 771 197 q 580 23 660 56 q 413 -10 500 -10 m 450 1013 l 318 1013 l 418 1161 l 607 1161 l 450 1013 z "},"Û":{"ha":874,"x_min":53,"x_max":771,"o":"m 413 -10 q 244 23 324 -10 q 108 126 164 56 q 53 292 53 197 l 53 971 l 194 971 l 194 290 q 261 173 194 215 q 413 131 328 131 q 563 174 496 131 q 629 292 629 217 l 629 971 l 771 971 l 771 290 q 715 126 771 197 q 580 23 660 56 q 413 -10 500 -10 m 346 1013 l 193 1013 l 350 1151 l 469 1151 l 622 1013 l 472 1013 l 406 1067 l 346 1013 z "},"Ü":{"ha":874,"x_min":53,"x_max":771,"o":"m 413 -10 q 580 23 500 -10 q 715 126 660 56 q 771 290 771 197 l 771 971 l 629 971 l 629 292 q 563 174 629 217 q 413 131 496 131 q 261 173 328 131 q 194 290 194 215 l 194 971 l 53 971 l 53 292 q 108 126 53 197 q 244 23 164 56 q 413 -10 324 -10 m 286 1153 q 345 1133 322 1153 q 368 1079 368 1113 q 344 1031 368 1051 q 286 1010 321 1010 q 233 1031 256 1010 q 210 1079 210 1053 q 232 1132 210 1111 q 286 1153 254 1153 m 544 1153 q 603 1133 581 1153 q 625 1079 625 1113 q 601 1031 625 1053 q 544 1010 576 1010 q 490 1031 513 1010 q 467 1079 467 1053 q 489 1133 467 1113 q 544 1153 511 1153 z "},"Ý":{"ha":843,"x_min":-42,"x_max":821,"o":"m -42 971 l 124 971 l 389 544 l 654 971 l 821 971 l 460 396 l 460 0 l 318 0 l 318 396 l -42 971 m 436 1014 l 304 1014 l 404 1163 l 593 1163 l 436 1014 z "},"à":{"ha":872,"x_min":-32,"x_max":851,"o":"m 411 761 l 289 418 l 531 418 l 411 761 m 701 0 l 585 286 l 236 286 q 119 0 156 94 l -32 0 l 358 985 l 461 985 l 851 0 l 701 0 m 474 1022 l 342 1022 l 185 1171 l 374 1171 l 474 1022 z "},"á":{"ha":872,"x_min":-32,"x_max":851,"o":"m 411 761 l 289 418 l 531 418 l 411 761 m 701 0 l 585 286 l 236 286 q 119 0 156 94 l -32 0 l 358 985 l 461 985 l 851 0 l 701 0 m 472 1021 l 340 1021 l 440 1169 l 629 1169 l 472 1021 z "},"â":{"ha":872,"x_min":-32,"x_max":851,"o":"m 411 761 l 289 418 l 531 418 l 411 761 m 701 0 l 585 286 l 236 286 q 119 0 156 94 l -32 0 l 358 985 l 461 985 l 851 0 l 701 0 m 342 1013 l 189 1013 l 346 1151 l 465 1151 l 618 1013 l 468 1013 l 401 1067 l 342 1013 z "},"ã":{"ha":872,"x_min":-32,"x_max":851,"o":"m 308 1015 l 228 1053 q 329 1157 269 1149 q 376 1149 351 1158 q 417 1128 400 1139 q 449 1113 433 1118 q 477 1117 465 1107 q 497 1157 489 1126 l 586 1113 q 496 1013 551 1028 q 444 1017 474 1006 q 393 1042 415 1028 q 347 1053 371 1057 q 308 1015 324 1049 m 411 761 l 289 418 l 531 418 l 411 761 m 701 0 l 585 286 l 236 286 q 119 0 156 94 l -32 0 l 358 985 l 461 985 l 851 0 l 701 0 z "},"ä":{"ha":872,"x_min":-32,"x_max":851,"o":"m 411 761 l 289 418 l 531 418 l 411 761 m 701 0 l 585 286 l 236 286 q 119 0 156 94 l -32 0 l 358 985 l 461 985 l 851 0 l 701 0 m 286 1140 q 344 1122 322 1140 q 365 1074 365 1104 q 343 1029 365 1049 q 286 1010 321 1010 q 232 1029 254 1010 q 210 1074 210 1049 q 231 1122 210 1103 q 286 1140 253 1140 m 539 1140 q 595 1122 574 1140 q 617 1074 617 1104 q 593 1029 617 1049 q 539 1010 569 1010 q 484 1029 507 1010 q 461 1074 461 1049 q 483 1122 461 1103 q 539 1140 506 1140 z "},"å":{"ha":881,"x_min":-24,"x_max":860,"o":"m 297 1061 q 331 1144 297 1110 q 413 1179 365 1179 q 496 1144 461 1179 q 531 1061 531 1108 q 478 963 531 997 l 860 0 l 710 0 l 593 286 l 244 286 q 128 0 164 94 l -24 0 l 356 958 q 297 1061 297 993 m 419 761 l 297 418 l 539 418 l 419 761 m 458 1061 q 445 1093 458 1079 q 413 1107 432 1107 q 383 1093 396 1107 q 369 1061 369 1079 q 383 1031 369 1044 q 413 1018 396 1018 q 446 1031 433 1018 q 458 1061 458 1044 z "},"æ":{"ha":1222,"x_min":-19,"x_max":1135,"o":"m 682 346 l 682 140 l 1135 140 l 1135 0 l 542 0 l 542 346 l 336 346 q 139 0 215 136 l -19 0 l 525 972 l 1132 972 l 1132 832 l 682 832 l 682 486 l 1122 486 l 1122 346 l 682 346 m 414 486 l 542 486 l 556 794 l 414 486 z "},"ç":{"ha":1026,"x_min":32,"x_max":967,"o":"m 32 483 q 171 832 32 683 q 507 976 311 976 q 796 880 674 976 q 960 618 918 783 l 821 618 q 700 781 783 725 q 507 838 617 838 q 268 733 368 838 q 168 483 168 629 q 268 236 168 340 q 507 132 368 132 q 705 193 618 132 q 829 364 792 254 l 967 364 q 812 105 926 206 q 540 -6 697 4 l 526 -43 q 632 -91 596 -47 q 653 -192 668 -135 q 572 -289 638 -250 q 499 -312 540 -308 q 418 -304 457 -315 q 349 -264 379 -293 q 310 -194 318 -235 l 390 -169 q 497 -218 440 -233 q 542 -176 535 -208 q 494 -118 551 -137 q 399 -108 457 -106 l 444 -3 q 171 138 283 18 q 32 483 32 286 z "},"è":{"ha":706,"x_min":44,"x_max":638,"o":"m 186 140 l 186 415 l 626 415 l 626 557 l 186 557 l 186 831 l 636 831 l 636 971 l 44 971 l 44 0 l 638 0 l 638 140 l 186 140 m 450 1017 l 318 1017 l 161 1165 l 350 1165 l 450 1017 z "},"é":{"ha":706,"x_min":44,"x_max":638,"o":"m 186 415 l 186 140 l 638 140 l 638 0 l 44 0 l 44 971 l 636 971 l 636 831 l 186 831 l 186 557 l 626 557 l 626 415 l 186 415 m 397 1014 l 265 1014 l 365 1163 l 554 1163 l 397 1014 z "},"ê":{"ha":706,"x_min":44,"x_max":638,"o":"m 186 415 l 186 140 l 638 140 l 638 0 l 44 0 l 44 971 l 636 971 l 636 831 l 186 831 l 186 557 l 626 557 l 626 415 l 186 415 m 292 1018 l 139 1018 l 296 1157 l 415 1157 l 568 1018 l 418 1018 l 351 1072 l 292 1018 z "},"ë":{"ha":706,"x_min":44,"x_max":638,"o":"m 186 140 l 186 415 l 626 415 l 626 557 l 186 557 l 186 831 l 636 831 l 636 971 l 44 971 l 44 0 l 638 0 l 638 140 l 186 140 m 232 1153 q 290 1132 268 1153 q 313 1079 313 1111 q 290 1032 313 1053 q 232 1011 267 1011 q 178 1033 201 1011 q 156 1079 156 1054 q 178 1132 156 1111 q 232 1153 200 1153 m 486 1153 q 544 1133 522 1153 q 565 1079 565 1113 q 542 1033 565 1054 q 486 1011 518 1011 q 432 1032 454 1011 q 410 1079 410 1053 q 432 1132 410 1111 q 486 1153 454 1153 z "},"ì":{"ha":582,"x_min":13,"x_max":514,"o":"m 514 832 l 514 971 l 13 971 l 13 832 l 193 832 l 193 140 l 13 140 l 13 0 l 514 0 l 514 140 l 333 140 l 333 832 l 514 832 m 338 1011 l 206 1011 l 49 1160 l 238 1160 l 338 1011 z "},"í":{"ha":575,"x_min":6,"x_max":507,"o":"m 507 971 l 507 832 l 326 832 l 326 140 l 507 140 l 507 0 l 6 0 l 6 140 l 186 140 l 186 832 l 6 832 l 6 971 l 507 971 m 315 1015 l 183 1015 l 283 1164 l 472 1164 l 315 1015 z "},"î":{"ha":575,"x_min":6,"x_max":507,"o":"m 507 971 l 507 832 l 326 832 l 326 140 l 507 140 l 507 0 l 6 0 l 6 140 l 186 140 l 186 832 l 6 832 l 6 971 l 507 971 m 196 1013 l 43 1013 l 200 1151 l 319 1151 l 472 1013 l 322 1013 l 256 1067 l 196 1013 z "},"ï":{"ha":575,"x_min":6,"x_max":507,"o":"m 507 832 l 507 971 l 6 971 l 6 832 l 186 832 l 186 140 l 6 140 l 6 0 l 507 0 l 507 140 l 326 140 l 326 832 l 507 832 m 135 1150 q 192 1130 169 1150 q 214 1078 214 1110 q 191 1031 214 1051 q 135 1010 168 1010 q 81 1031 103 1010 q 58 1078 58 1051 q 80 1130 58 1110 q 135 1150 101 1150 m 388 1150 q 444 1130 422 1150 q 465 1078 465 1110 q 442 1031 465 1053 q 388 1010 418 1010 q 333 1031 356 1010 q 310 1078 310 1051 q 332 1130 310 1110 q 388 1150 354 1150 z "},"ñ":{"ha":872,"x_min":50,"x_max":771,"o":"m 329 1008 l 246 1043 q 289 1126 268 1099 q 339 1158 310 1153 q 397 1148 365 1161 q 449 1122 429 1135 q 485 1116 468 1110 q 511 1160 503 1122 l 603 1119 q 518 1007 568 1026 q 465 1012 496 1000 q 413 1038 435 1024 q 367 1048 390 1053 q 329 1008 343 1043 m 190 0 l 50 0 l 50 974 l 158 972 l 632 288 l 632 972 l 771 972 l 771 0 l 660 0 l 190 679 l 190 0 z "},"ò":{"ha":1108,"x_min":25,"x_max":1015,"o":"m 771 738 q 874 486 874 632 q 771 235 874 340 q 519 129 665 129 q 271 235 374 129 q 167 486 167 339 q 271 738 167 633 q 519 843 374 843 q 771 738 665 843 m 169 838 q 25 486 25 689 q 169 135 25 283 q 519 -12 313 -12 q 871 135 726 -12 q 1015 486 1015 283 q 871 838 1015 689 q 519 985 724 985 q 169 838 314 985 m 606 1021 l 474 1021 l 317 1169 l 506 1169 l 606 1021 z "},"ó":{"ha":1108,"x_min":25,"x_max":1015,"o":"m 771 235 q 874 486 874 340 q 771 738 874 632 q 519 843 665 843 q 271 738 374 843 q 167 486 167 633 q 271 235 167 339 q 519 129 374 129 q 771 235 665 129 m 169 135 q 25 486 25 283 q 169 838 25 689 q 519 985 314 985 q 871 838 724 985 q 1015 486 1015 689 q 871 135 1015 283 q 519 -12 726 -12 q 169 135 313 -12 m 571 1019 l 439 1019 l 539 1168 l 728 1168 l 571 1019 z "},"ô":{"ha":1108,"x_min":25,"x_max":1015,"o":"m 771 235 q 874 486 874 340 q 771 738 874 632 q 519 843 665 843 q 271 738 374 843 q 167 486 167 633 q 271 235 167 339 q 519 129 374 129 q 771 235 665 129 m 169 135 q 25 486 25 283 q 169 838 25 689 q 519 985 314 985 q 871 838 724 985 q 1015 486 1015 689 q 871 135 1015 283 q 519 -12 726 -12 q 169 135 313 -12 m 464 1017 l 311 1017 l 468 1156 l 588 1156 l 740 1017 l 590 1017 l 524 1071 l 464 1017 z "},"õ":{"ha":1108,"x_min":25,"x_max":1015,"o":"m 424 1021 l 339 1051 q 435 1156 382 1149 q 493 1147 461 1158 q 544 1124 525 1135 q 581 1118 564 1113 q 608 1157 599 1124 l 700 1124 q 613 1019 660 1035 q 560 1023 590 1013 q 506 1047 529 1033 q 460 1056 483 1060 q 424 1021 438 1053 m 771 235 q 874 486 874 340 q 771 738 874 632 q 519 843 665 843 q 271 738 374 843 q 167 486 167 633 q 271 235 167 339 q 519 129 374 129 q 771 235 665 129 m 169 135 q 25 486 25 283 q 169 838 25 689 q 519 985 314 985 q 871 838 724 985 q 1015 486 1015 689 q 871 135 1015 283 q 519 -12 726 -12 q 169 135 313 -12 z "},"ö":{"ha":1108,"x_min":25,"x_max":1015,"o":"m 771 738 q 874 486 874 632 q 771 235 874 340 q 519 129 665 129 q 271 235 374 129 q 167 486 167 339 q 271 738 167 633 q 519 843 374 843 q 771 738 665 843 m 169 838 q 25 486 25 689 q 169 135 25 283 q 519 -12 313 -12 q 871 135 726 -12 q 1015 486 1015 283 q 871 838 1015 689 q 519 985 724 985 q 169 838 314 985 m 397 1149 q 456 1129 433 1149 q 478 1079 478 1110 q 455 1033 478 1053 q 397 1013 432 1013 q 343 1033 365 1013 q 321 1079 321 1053 q 342 1129 321 1110 q 397 1149 364 1149 m 653 1149 q 711 1130 689 1149 q 733 1079 733 1111 q 709 1033 733 1054 q 653 1013 685 1013 q 598 1033 621 1013 q 575 1079 575 1054 q 597 1129 575 1110 q 653 1149 619 1149 z "},"ø":{"ha":1111,"x_min":33,"x_max":1024,"o":"m 178 135 q 33 486 33 283 q 178 838 33 689 q 528 985 322 985 q 738 939 646 985 l 783 1010 l 939 1011 l 847 864 q 1024 486 1024 711 q 879 135 1024 283 q 528 -12 736 -12 q 317 33 418 -12 l 258 -60 l 104 -60 l 210 110 l 178 136 l 178 135 m 882 486 q 771 747 882 636 q 392 157 735 690 q 528 129 449 129 q 779 235 674 129 q 882 486 882 340 m 528 843 q 279 738 382 843 q 175 486 175 631 q 279 235 175 342 l 279 233 l 283 231 l 286 228 l 661 819 q 528 843 599 843 z "},"ù":{"ha":874,"x_min":53,"x_max":771,"o":"m 413 -10 q 580 23 500 -10 q 715 126 660 56 q 771 290 771 197 l 771 971 l 629 971 l 629 292 q 563 174 629 217 q 413 131 496 131 q 261 173 328 131 q 194 290 194 215 l 194 971 l 53 971 l 53 292 q 108 126 53 197 q 244 23 164 56 q 413 -10 324 -10 m 522 1010 l 390 1010 l 233 1158 l 422 1158 l 522 1010 z "},"ú":{"ha":874,"x_min":53,"x_max":771,"o":"m 413 -10 q 244 23 324 -10 q 108 126 164 56 q 53 292 53 197 l 53 971 l 194 971 l 194 290 q 261 173 194 215 q 413 131 328 131 q 563 174 496 131 q 629 292 629 217 l 629 971 l 771 971 l 771 290 q 715 126 771 197 q 580 23 660 56 q 413 -10 500 -10 m 450 1013 l 318 1013 l 418 1161 l 607 1161 l 450 1013 z "},"û":{"ha":874,"x_min":53,"x_max":771,"o":"m 413 -10 q 244 23 324 -10 q 108 126 164 56 q 53 292 53 197 l 53 971 l 194 971 l 194 290 q 261 173 194 215 q 413 131 328 131 q 563 174 496 131 q 629 292 629 217 l 629 971 l 771 971 l 771 290 q 715 126 771 197 q 580 23 660 56 q 413 -10 500 -10 m 346 1013 l 193 1013 l 350 1151 l 469 1151 l 622 1013 l 472 1013 l 406 1067 l 346 1013 z "},"ü":{"ha":874,"x_min":53,"x_max":771,"o":"m 413 -10 q 580 23 500 -10 q 715 126 660 56 q 771 290 771 197 l 771 971 l 629 971 l 629 292 q 563 174 629 217 q 413 131 496 131 q 261 173 328 131 q 194 290 194 215 l 194 971 l 53 971 l 53 292 q 108 126 53 197 q 244 23 164 56 q 413 -10 324 -10 m 286 1153 q 345 1133 322 1153 q 368 1079 368 1113 q 344 1031 368 1051 q 286 1010 321 1010 q 233 1031 256 1010 q 210 1079 210 1053 q 232 1132 210 1111 q 286 1153 254 1153 m 544 1153 q 603 1133 581 1153 q 625 1079 625 1113 q 601 1031 625 1053 q 544 1010 576 1010 q 490 1031 513 1010 q 467 1079 467 1053 q 489 1133 467 1113 q 544 1153 511 1153 z "},"ý":{"ha":843,"x_min":-42,"x_max":821,"o":"m -42 971 l 124 971 l 389 544 l 654 971 l 821 971 l 460 396 l 460 0 l 318 0 l 318 396 l -42 971 m 436 1014 l 304 1014 l 404 1163 l 593 1163 l 436 1014 z "},"ÿ":{"ha":843,"x_min":-42,"x_max":821,"o":"m 124 971 l -42 971 l 318 396 l 318 0 l 460 0 l 460 396 l 821 971 l 654 971 l 389 544 l 124 971 m 249 1163 q 308 1140 285 1163 q 331 1081 331 1117 q 307 1026 331 1050 q 249 1003 283 1003 q 194 1026 217 1003 q 171 1081 171 1050 q 193 1140 171 1117 q 249 1163 215 1163 m 508 1163 q 567 1140 544 1163 q 589 1081 589 1117 q 565 1027 589 1051 q 508 1003 540 1003 q 453 1026 476 1003 q 429 1081 429 1050 q 452 1140 429 1117 q 508 1163 475 1163 z "},"Œ":{"ha":1207,"x_min":24,"x_max":1125,"o":"m 674 415 l 674 138 l 1125 138 l 1125 -3 l 610 -3 q 521 -10 564 -10 q 167 131 310 -10 q 24 486 24 272 q 167 841 24 700 q 521 982 310 982 q 597 976 563 982 l 1122 976 l 1122 836 l 674 836 l 674 557 l 1113 557 l 1113 415 l 674 415 m 521 853 q 268 744 371 851 q 165 486 165 638 q 268 228 165 333 q 521 122 371 122 l 528 122 l 532 122 l 532 853 l 521 853 z "},"œ":{"ha":1207,"x_min":24,"x_max":1125,"o":"m 674 415 l 674 138 l 1125 138 l 1125 -3 l 610 -3 q 521 -10 564 -10 q 167 131 310 -10 q 24 486 24 272 q 167 841 24 700 q 521 982 310 982 q 597 976 563 982 l 1122 976 l 1122 836 l 674 836 l 674 557 l 1113 557 l 1113 415 l 674 415 m 521 853 q 268 744 371 851 q 165 486 165 638 q 268 228 165 333 q 521 122 371 122 l 528 122 l 532 122 l 532 853 l 521 853 z "},"Ÿ":{"ha":843,"x_min":-42,"x_max":821,"o":"m 124 971 l -42 971 l 318 396 l 318 0 l 460 0 l 460 396 l 821 971 l 654 971 l 389 544 l 124 971 m 249 1163 q 308 1140 285 1163 q 331 1081 331 1117 q 307 1026 331 1050 q 249 1003 283 1003 q 194 1026 217 1003 q 171 1081 171 1050 q 193 1140 171 1117 q 249 1163 215 1163 m 508 1163 q 567 1140 544 1163 q 589 1081 589 1117 q 565 1027 589 1051 q 508 1003 540 1003 q 453 1026 476 1003 q 429 1081 429 1050 q 452 1140 429 1117 q 508 1163 475 1163 z "},"ˆ":{"ha":489,"x_min":19,"x_max":449,"o":"m 172 878 l 19 878 l 176 1017 l 296 1017 l 449 878 l 299 878 l 232 932 l 172 878 z "},"˜":{"ha":539,"x_min":67,"x_max":422,"o":"m 150 849 l 67 883 q 160 999 110 990 q 218 988 186 1001 q 269 963 250 975 q 306 956 289 950 q 332 1000 324 963 l 422 960 q 339 844 385 863 q 297 845 321 838 q 253 865 274 853 q 214 885 233 876 q 178 885 194 893 q 150 849 161 878 z "}," ":{"ha":589,"x_min":0,"x_max":0,"o":""}," ":{"ha":1179,"x_min":0,"x_max":0,"o":""}," ":{"ha":589,"x_min":0,"x_max":0,"o":""}," ":{"ha":1179,"x_min":0,"x_max":0,"o":""}," ":{"ha":393,"x_min":0,"x_max":0,"o":""}," ":{"ha":294,"x_min":0,"x_max":0,"o":""}," ":{"ha":196,"x_min":0,"x_max":0,"o":""}," ":{"ha":196,"x_min":0,"x_max":0,"o":""}," ":{"ha":147,"x_min":0,"x_max":0,"o":""}," ":{"ha":235,"x_min":0,"x_max":0,"o":""}," ":{"ha":65,"x_min":0,"x_max":0,"o":""},"…":{"ha":707,"x_min":47,"x_max":632,"o":"m 125 157 q 184 135 161 157 q 207 76 207 113 q 183 22 207 46 q 125 -3 160 -3 q 70 22 93 -3 q 47 76 47 46 q 69 135 47 113 q 125 157 92 157 m 336 157 q 394 135 372 157 q 417 76 417 113 q 394 22 417 46 q 336 -3 371 -3 q 281 22 304 -3 q 257 76 257 46 q 280 135 257 113 q 336 157 303 157 m 551 157 q 610 135 588 157 q 632 76 632 113 q 609 22 632 46 q 551 -3 586 -3 q 496 22 519 -3 q 472 76 472 46 q 495 135 472 113 q 551 157 518 157 z "}," ":{"ha":235,"x_min":0,"x_max":0,"o":""}," ":{"ha":294,"x_min":0,"x_max":0,"o":""},"€":{"ha":1081,"x_min":11,"x_max":997,"o":"m 11 496 l 11 592 l 74 592 q 201 832 104 728 q 538 976 342 976 q 826 880 704 976 q 990 618 949 783 l 851 618 q 731 781 814 725 q 538 838 647 838 q 299 733 399 838 q 214 592 238 667 l 454 592 l 454 496 l 199 496 l 199 483 l 199 461 l 454 461 l 454 360 l 221 360 q 299 236 244 293 q 538 132 399 132 q 735 193 649 132 q 860 364 822 254 l 997 364 q 831 95 956 197 q 538 -7 706 -7 q 201 138 339 -7 q 78 360 111 233 l 11 360 l 11 461 l 63 461 l 63 483 l 63 496 l 11 496 z "},"◼":{"ha":972,"x_min":0,"x_max":972,"o":"m 0 972 l 972 972 l 972 0 l 0 0 l 0 972 z "},"ﬁ":{"ha":1096,"x_min":50,"x_max":1015,"o":"m 190 415 l 190 0 l 50 0 l 50 971 l 629 971 l 629 831 l 190 831 l 190 557 l 579 557 l 579 415 l 190 415 m 1015 971 l 1015 832 l 835 832 l 835 132 l 1015 132 l 1015 0 l 514 0 l 514 132 l 694 132 l 694 971 l 1015 971 z "},"ﬂ":{"ha":1360,"x_min":57,"x_max":1288,"o":"m 197 415 l 197 0 l 57 0 l 57 971 l 636 971 l 636 831 l 197 831 l 197 557 l 586 557 l 586 415 l 197 415 m 831 971 l 831 140 l 1288 140 l 1288 0 l 690 0 l 690 971 l 831 971 z "}}}
